<svg width="79" height="194" viewBox="0 0 79 194" fill="none" data-parallax-scroll="{&quot;y&quot;: -50,  &quot;smoothness&quot;: 30}" xmlns="http://www.w3.org/2000/svg">
                    <path d="M0 3.82266H7.54894" stroke="#07893C" stroke-width="1.2"></path>
                    <path d="M3.77444 7.64532L3.77444 4.52995e-06" stroke="#07893C" stroke-width="1.2"></path>
                    <path d="M14.1542 3.82266H21.7032" stroke="#07893C" stroke-width="1.2"></path>
                    <path d="M17.9287 7.64532L17.9287 4.52995e-06" stroke="#07893C" stroke-width="1.2"></path>
                    <path d="M28.3085 3.82266H35.8574" stroke="#07893C" stroke-width="1.2"></path>
                    <path d="M32.083 7.64532L32.083 4.52995e-06" stroke="#07893C" stroke-width="1.2"></path>
                    <path d="M42.4627 3.82266H50.0117" stroke="#07893C" stroke-width="1.2"></path>
                    <path d="M46.2372 7.64532L46.2372 4.52995e-06" stroke="#07893C" stroke-width="1.2"></path>
                    <path d="M56.617 3.82266H64.1659" stroke="#07893C" stroke-width="1.2"></path>
                    <path d="M60.3914 7.64532L60.3914 4.52995e-06" stroke="#07893C" stroke-width="1.2"></path>
                    <path d="M70.7712 3.82266H78.3202" stroke="#07893C" stroke-width="1.2"></path>
                    <path d="M74.5457 7.64532L74.5457 4.52995e-06" stroke="#07893C" stroke-width="1.2"></path>
                    <path d="M0 18.1576H7.54894" stroke="#07893C" stroke-width="1.2"></path>
                    <path d="M3.77444 21.9803L3.77444 14.335" stroke="#07893C" stroke-width="1.2"></path>
                    <path d="M14.1542 18.1576H21.7032" stroke="#07893C" stroke-width="1.2"></path>
                    <path d="M17.9287 21.9803L17.9287 14.335" stroke="#07893C" stroke-width="1.2"></path>
                    <path d="M28.3085 18.1576H35.8574" stroke="#07893C" stroke-width="1.2"></path>
                    <path d="M32.083 21.9803L32.083 14.335" stroke="#07893C" stroke-width="1.2"></path>
                    <path d="M42.4627 18.1576H50.0117" stroke="#07893C" stroke-width="1.2"></path>
                    <path d="M46.2372 21.9803L46.2372 14.335" stroke="#07893C" stroke-width="1.2"></path>
                    <path d="M56.617 18.1576H64.1659" stroke="#07893C" stroke-width="1.2"></path>
                    <path d="M60.3914 21.9803L60.3914 14.335" stroke="#07893C" stroke-width="1.2"></path>
                    <path d="M70.7712 18.1576H78.3202" stroke="#07893C" stroke-width="1.2"></path>
                    <path d="M74.5457 21.9803L74.5457 14.335" stroke="#07893C" stroke-width="1.2"></path>
                    <path d="M0 32.4926H7.54894" stroke="#07893C" stroke-width="1.2"></path>
                    <path d="M3.77444 36.3153L3.77444 28.67" stroke="#07893C" stroke-width="1.2"></path>
                    <path d="M14.1542 32.4926H21.7032" stroke="#07893C" stroke-width="1.2"></path>
                    <path d="M17.9287 36.3153L17.9287 28.67" stroke="#07893C" stroke-width="1.2"></path>
                    <path d="M28.3085 32.4926H35.8574" stroke="#07893C" stroke-width="1.2"></path>
                    <path d="M32.083 36.3153L32.083 28.67" stroke="#07893C" stroke-width="1.2"></path>
                    <path d="M42.4627 32.4926H50.0117" stroke="#07893C" stroke-width="1.2"></path>
                    <path d="M46.2372 36.3153L46.2372 28.67" stroke="#07893C" stroke-width="1.2"></path>
                    <path d="M56.617 32.4926H64.1659" stroke="#07893C" stroke-width="1.2"></path>
                    <path d="M60.3914 36.3153L60.3914 28.67" stroke="#07893C" stroke-width="1.2"></path>
                    <path d="M70.7712 32.4926H78.3202" stroke="#07893C" stroke-width="1.2"></path>
                    <path d="M74.5457 36.3153L74.5457 28.67" stroke="#07893C" stroke-width="1.2"></path>
                    <path d="M0 46.8276H7.54894" stroke="#07893C" stroke-width="1.2"></path>
                    <path d="M3.77444 50.6502L3.77444 43.0049" stroke="#07893C" stroke-width="1.2"></path>
                    <path d="M14.1542 46.8276H21.7032" stroke="#07893C" stroke-width="1.2"></path>
                    <path d="M17.9287 50.6502L17.9287 43.0049" stroke="#07893C" stroke-width="1.2"></path>
                    <path d="M28.3085 46.8276H35.8574" stroke="#07893C" stroke-width="1.2"></path>
                    <path d="M32.083 50.6502L32.083 43.0049" stroke="#07893C" stroke-width="1.2"></path>
                    <path d="M42.4627 46.8276H50.0117" stroke="#07893C" stroke-width="1.2"></path>
                    <path d="M46.2372 50.6502L46.2372 43.0049" stroke="#07893C" stroke-width="1.2"></path>
                    <path d="M56.617 46.8276H64.1659" stroke="#07893C" stroke-width="1.2"></path>
                    <path d="M60.3914 50.6502L60.3914 43.0049" stroke="#07893C" stroke-width="1.2"></path>
                    <path d="M70.7712 46.8276H78.3202" stroke="#07893C" stroke-width="1.2"></path>
                    <path d="M74.5457 50.6502L74.5457 43.0049" stroke="#07893C" stroke-width="1.2"></path>
                    <path d="M0 61.1626H7.54894" stroke="#07893C" stroke-width="1.2"></path>
                    <path d="M3.77444 64.9852L3.77444 57.3399" stroke="#07893C" stroke-width="1.2"></path>
                    <path d="M14.1542 61.1626H21.7032" stroke="#07893C" stroke-width="1.2"></path>
                    <path d="M17.9287 64.9852L17.9287 57.3399" stroke="#07893C" stroke-width="1.2"></path>
                    <path d="M28.3085 61.1626H35.8574" stroke="#07893C" stroke-width="1.2"></path>
                    <path d="M32.083 64.9852L32.083 57.3399" stroke="#07893C" stroke-width="1.2"></path>
                    <path d="M42.4627 61.1626H50.0117" stroke="#07893C" stroke-width="1.2"></path>
                    <path d="M46.2372 64.9852L46.2372 57.3399" stroke="#07893C" stroke-width="1.2"></path>
                    <path d="M56.617 61.1626H64.1659" stroke="#07893C" stroke-width="1.2"></path>
                    <path d="M60.3914 64.9852L60.3914 57.3399" stroke="#07893C" stroke-width="1.2"></path>
                    <path d="M70.7712 61.1626H78.3202" stroke="#07893C" stroke-width="1.2"></path>
                    <path d="M74.5457 64.9852L74.5457 57.3399" stroke="#07893C" stroke-width="1.2"></path>
                    <path d="M0 75.4975H7.54894" stroke="#07893C" stroke-width="1.2"></path>
                    <path d="M3.77444 79.3202L3.77444 71.6749" stroke="#07893C" stroke-width="1.2"></path>
                    <path d="M14.1542 75.4975H21.7032" stroke="#07893C" stroke-width="1.2"></path>
                    <path d="M17.9287 79.3202L17.9287 71.6749" stroke="#07893C" stroke-width="1.2"></path>
                    <path d="M28.3085 75.4975H35.8574" stroke="#07893C" stroke-width="1.2"></path>
                    <path d="M32.083 79.3202L32.083 71.6749" stroke="#07893C" stroke-width="1.2"></path>
                    <path d="M42.4627 75.4975H50.0117" stroke="#07893C" stroke-width="1.2"></path>
                    <path d="M46.2372 79.3202L46.2372 71.6749" stroke="#07893C" stroke-width="1.2"></path>
                    <path d="M56.617 75.4975H64.1659" stroke="#07893C" stroke-width="1.2"></path>
                    <path d="M60.3914 79.3202L60.3914 71.6749" stroke="#07893C" stroke-width="1.2"></path>
                    <path d="M70.7712 75.4975H78.3202" stroke="#07893C" stroke-width="1.2"></path>
                    <path d="M74.5457 79.3202L74.5457 71.6749" stroke="#07893C" stroke-width="1.2"></path>
                    <path d="M0 89.8325H7.54894" stroke="#07893C" stroke-width="1.2"></path>
                    <path d="M3.77444 93.6552L3.77444 86.0099" stroke="#07893C" stroke-width="1.2"></path>
                    <path d="M14.1542 89.8325H21.7032" stroke="#07893C" stroke-width="1.2"></path>
                    <path d="M17.9287 93.6552L17.9287 86.0099" stroke="#07893C" stroke-width="1.2"></path>
                    <path d="M28.3085 89.8325H35.8574" stroke="#07893C" stroke-width="1.2"></path>
                    <path d="M32.083 93.6552L32.083 86.0099" stroke="#07893C" stroke-width="1.2"></path>
                    <path d="M42.4627 89.8325H50.0117" stroke="#07893C" stroke-width="1.2"></path>
                    <path d="M46.2372 93.6552L46.2372 86.0099" stroke="#07893C" stroke-width="1.2"></path>
                    <path d="M56.617 89.8325H64.1659" stroke="#07893C" stroke-width="1.2"></path>
                    <path d="M60.3914 93.6552L60.3914 86.0099" stroke="#07893C" stroke-width="1.2"></path>
                    <path d="M70.7712 89.8325H78.3202" stroke="#07893C" stroke-width="1.2"></path>
                    <path d="M74.5457 93.6552L74.5457 86.0099" stroke="#07893C" stroke-width="1.2"></path>
                    <path d="M0 104.167H7.54894" stroke="#07893C" stroke-width="1.2"></path>
                    <path d="M3.77444 107.99L3.77444 100.345" stroke="#07893C" stroke-width="1.2"></path>
                    <path d="M14.1542 104.167H21.7032" stroke="#07893C" stroke-width="1.2"></path>
                    <path d="M17.9287 107.99L17.9287 100.345" stroke="#07893C" stroke-width="1.2"></path>
                    <path d="M28.3085 104.167H35.8574" stroke="#07893C" stroke-width="1.2"></path>
                    <path d="M32.083 107.99L32.083 100.345" stroke="#07893C" stroke-width="1.2"></path>
                    <path d="M42.4627 104.167H50.0117" stroke="#07893C" stroke-width="1.2"></path>
                    <path d="M46.2372 107.99L46.2372 100.345" stroke="#07893C" stroke-width="1.2"></path>
                    <path d="M56.617 104.167H64.1659" stroke="#07893C" stroke-width="1.2"></path>
                    <path d="M60.3914 107.99L60.3914 100.345" stroke="#07893C" stroke-width="1.2"></path>
                    <path d="M70.7712 104.167H78.3202" stroke="#07893C" stroke-width="1.2"></path>
                    <path d="M74.5457 107.99L74.5457 100.345" stroke="#07893C" stroke-width="1.2"></path>
                    <path d="M0 118.502H7.54894" stroke="#07893C" stroke-width="1.2"></path>
                    <path d="M3.77444 122.325L3.77444 114.68" stroke="#07893C" stroke-width="1.2"></path>
                    <path d="M14.1542 118.502H21.7032" stroke="#07893C" stroke-width="1.2"></path>
                    <path d="M17.9287 122.325L17.9287 114.68" stroke="#07893C" stroke-width="1.2"></path>
                    <path d="M28.3085 118.502H35.8574" stroke="#07893C" stroke-width="1.2"></path>
                    <path d="M32.083 122.325L32.083 114.68" stroke="#07893C" stroke-width="1.2"></path>
                    <path d="M42.4627 118.502H50.0117" stroke="#07893C" stroke-width="1.2"></path>
                    <path d="M46.2372 122.325L46.2372 114.68" stroke="#07893C" stroke-width="1.2"></path>
                    <path d="M56.617 118.502H64.1659" stroke="#07893C" stroke-width="1.2"></path>
                    <path d="M60.3914 122.325L60.3914 114.68" stroke="#07893C" stroke-width="1.2"></path>
                    <path d="M70.7712 118.502H78.3202" stroke="#07893C" stroke-width="1.2"></path>
                    <path d="M74.5457 122.325L74.5457 114.68" stroke="#07893C" stroke-width="1.2"></path>
                    <path d="M0 132.837H7.54894" stroke="#07893C" stroke-width="1.2"></path>
                    <path d="M3.77444 136.66L3.77444 129.015" stroke="#07893C" stroke-width="1.2"></path>
                    <path d="M14.1542 132.837H21.7032" stroke="#07893C" stroke-width="1.2"></path>
                    <path d="M17.9287 136.66L17.9287 129.015" stroke="#07893C" stroke-width="1.2"></path>
                    <path d="M28.3085 132.837H35.8574" stroke="#07893C" stroke-width="1.2"></path>
                    <path d="M32.083 136.66L32.083 129.015" stroke="#07893C" stroke-width="1.2"></path>
                    <path d="M42.4627 132.837H50.0117" stroke="#07893C" stroke-width="1.2"></path>
                    <path d="M46.2372 136.66L46.2372 129.015" stroke="#07893C" stroke-width="1.2"></path>
                    <path d="M56.617 132.837H64.1659" stroke="#07893C" stroke-width="1.2"></path>
                    <path d="M60.3914 136.66L60.3914 129.015" stroke="#07893C" stroke-width="1.2"></path>
                    <path d="M70.7712 132.837H78.3202" stroke="#07893C" stroke-width="1.2"></path>
                    <path d="M74.5457 136.66L74.5457 129.015" stroke="#07893C" stroke-width="1.2"></path>
                    <path d="M0 147.172H7.54894" stroke="#07893C" stroke-width="1.2"></path>
                    <path d="M3.77444 150.995L3.77444 143.35" stroke="#07893C" stroke-width="1.2"></path>
                    <path d="M14.1542 147.172H21.7032" stroke="#07893C" stroke-width="1.2"></path>
                    <path d="M17.9287 150.995L17.9287 143.35" stroke="#07893C" stroke-width="1.2"></path>
                    <path d="M28.3085 147.172H35.8574" stroke="#07893C" stroke-width="1.2"></path>
                    <path d="M32.083 150.995L32.083 143.35" stroke="#07893C" stroke-width="1.2"></path>
                    <path d="M42.4627 147.172H50.0117" stroke="#07893C" stroke-width="1.2"></path>
                    <path d="M46.2372 150.995L46.2372 143.35" stroke="#07893C" stroke-width="1.2"></path>
                    <path d="M56.617 147.172H64.1659" stroke="#07893C" stroke-width="1.2"></path>
                    <path d="M60.3914 150.995L60.3914 143.35" stroke="#07893C" stroke-width="1.2"></path>
                    <path d="M70.7712 147.172H78.3202" stroke="#07893C" stroke-width="1.2"></path>
                    <path d="M74.5457 150.995L74.5457 143.35" stroke="#07893C" stroke-width="1.2"></path>
                    <path d="M0 161.507H7.54894" stroke="#07893C" stroke-width="1.2"></path>
                    <path d="M3.77444 165.33L3.77444 157.685" stroke="#07893C" stroke-width="1.2"></path>
                    <path d="M14.1542 161.507H21.7032" stroke="#07893C" stroke-width="1.2"></path>
                    <path d="M17.9287 165.33L17.9287 157.685" stroke="#07893C" stroke-width="1.2"></path>
                    <path d="M28.3085 161.507H35.8574" stroke="#07893C" stroke-width="1.2"></path>
                    <path d="M32.083 165.33L32.083 157.685" stroke="#07893C" stroke-width="1.2"></path>
                    <path d="M42.4627 161.507H50.0117" stroke="#07893C" stroke-width="1.2"></path>
                    <path d="M46.2372 165.33L46.2372 157.685" stroke="#07893C" stroke-width="1.2"></path>
                    <path d="M56.617 161.507H64.1659" stroke="#07893C" stroke-width="1.2"></path>
                    <path d="M60.3914 165.33L60.3914 157.685" stroke="#07893C" stroke-width="1.2"></path>
                    <path d="M70.7712 161.507H78.3202" stroke="#07893C" stroke-width="1.2"></path>
                    <path d="M74.5457 165.33L74.5457 157.685" stroke="#07893C" stroke-width="1.2"></path>
                    <path d="M0 175.842H7.54894" stroke="#07893C" stroke-width="1.2"></path>
                    <path d="M3.77444 179.665L3.77444 172.02" stroke="#07893C" stroke-width="1.2"></path>
                    <path d="M14.1542 175.842H21.7032" stroke="#07893C" stroke-width="1.2"></path>
                    <path d="M17.9287 179.665L17.9287 172.02" stroke="#07893C" stroke-width="1.2"></path>
                    <path d="M28.3085 175.842H35.8574" stroke="#07893C" stroke-width="1.2"></path>
                    <path d="M32.083 179.665L32.083 172.02" stroke="#07893C" stroke-width="1.2"></path>
                    <path d="M42.4627 175.842H50.0117" stroke="#07893C" stroke-width="1.2"></path>
                    <path d="M46.2372 179.665L46.2372 172.02" stroke="#07893C" stroke-width="1.2"></path>
                    <path d="M56.617 175.842H64.1659" stroke="#07893C" stroke-width="1.2"></path>
                    <path d="M60.3914 179.665L60.3914 172.02" stroke="#07893C" stroke-width="1.2"></path>
                    <path d="M70.7712 175.842H78.3202" stroke="#07893C" stroke-width="1.2"></path>
                    <path d="M74.5457 179.665L74.5457 172.02" stroke="#07893C" stroke-width="1.2"></path>
                    <path d="M0 190.177H7.54894" stroke="#07893C" stroke-width="1.2"></path>
                    <path d="M3.77444 194L3.77444 186.355" stroke="#07893C" stroke-width="1.2"></path>
                    <path d="M14.1542 190.177H21.7032" stroke="#07893C" stroke-width="1.2"></path>
                    <path d="M17.9287 194L17.9287 186.355" stroke="#07893C" stroke-width="1.2"></path>
                    <path d="M28.3085 190.177H35.8574" stroke="#07893C" stroke-width="1.2"></path>
                    <path d="M32.083 194L32.083 186.355" stroke="#07893C" stroke-width="1.2"></path>
                    <path d="M42.4627 190.177H50.0117" stroke="#07893C" stroke-width="1.2"></path>
                    <path d="M46.2372 194L46.2372 186.355" stroke="#07893C" stroke-width="1.2"></path>
                    <path d="M56.617 190.177H64.1659" stroke="#07893C" stroke-width="1.2"></path>
                    <path d="M60.3914 194L60.3914 186.355" stroke="#07893C" stroke-width="1.2"></path>
                    <path d="M70.7712 190.177H78.3202" stroke="#07893C" stroke-width="1.2"></path>
                    <path d="M74.5457 194L74.5457 186.355" stroke="#07893C" stroke-width="1.2"></path>
                  </svg>